<?xml version="1.0" encoding="UTF-8" standalone="no"?>
<!-- Created with Inkscape (http://www.inkscape.org/) -->

<svg
   version="1.1"
   id="svg2"
   width="613.44"
   height="123.84"
   viewBox="0 0 613.44 123.84"
   sodipodi:docname="RZ_211119_Helmholtz-Imaging_Logo_RGB_Black.svg"
   inkscape:version="1.1.1 (3bf5ae0d25, 2021-09-20)"
   xmlns:inkscape="http://www.inkscape.org/namespaces/inkscape"
   xmlns:sodipodi="http://sodipodi.sourceforge.net/DTD/sodipodi-0.dtd"
   xmlns="http://www.w3.org/2000/svg"
   xmlns:svg="http://www.w3.org/2000/svg">
  <defs
     id="defs6" />
  <sodipodi:namedview
     id="namedview4"
     pagecolor="#ffffff"
     bordercolor="#999999"
     borderopacity="1"
     inkscape:pageshadow="0"
     inkscape:pageopacity="0"
     inkscape:pagecheckerboard="0"
     showgrid="false"
     inkscape:zoom="2.0605111"
     inkscape:cx="323.94875"
     inkscape:cy="-42.950508"
     inkscape:window-width="1920"
     inkscape:window-height="1001"
     inkscape:window-x="-9"
     inkscape:window-y="-9"
     inkscape:window-maximized="1"
     inkscape:current-layer="g8" />
  <g
     inkscape:groupmode="layer"
     inkscape:label="Image"
     id="g8">
    <path
       style="fill:#000000;fill-opacity:1;stroke-width:0.32"
       d="m 338.9096,122.53197 c -9.79402,-2.17387 -16.51306,-9.12593 -18.6073,-19.25254 -0.62624,-3.02823 -0.435,-9.800497 0.35917,-12.71875 1.79943,-6.61224 6.57069,-12.541978 12.48813,-15.52032 3.94653,-1.986352 6.86739,-2.625389 12,-2.625389 5.17098,0 8.03504,0.634963 12.16,2.695866 5.02883,2.512499 8.98579,7.464099 9.85315,12.329843 l 0.29949,1.68 h -5.98566 -5.98567 l -0.37651,-1.25665 c -0.20707,-0.691158 -0.98816,-1.885987 -1.73571,-2.655177 -3.40723,-3.505779 -9.12531,-4.349293 -14.0865,-2.077987 -8.94451,4.094937 -11.03667,19.221544 -3.67584,26.577094 6.46611,6.46147 18.45523,4.89835 21.32835,-2.78076 0.38144,-1.0195 0.61111,-1.98704 0.51034,-2.15008 -0.10077,-0.16304 -2.04672,-0.29644 -4.32432,-0.29644 h -4.14112 v -4 -4 h 12.48 12.48 v 4 4 h -2.24685 c -2.55309,0 -2.29625,-0.27334 -3.52256,3.7493 -2.04845,6.71964 -7.37789,11.73801 -14.71936,13.8602 -3.23286,0.93453 -11.23648,1.17752 -14.55123,0.44179 z m 142.75232,0.004 c -9.81434,-2.19459 -16.61328,-9.13219 -18.60666,-18.98614 -0.76064,-3.76014 -0.5184,-10.462372 0.49258,-13.628673 3.20765,-10.04601 10.83581,-16.291376 21.32739,-17.461255 9.08099,-1.012592 18.21875,2.611802 22.37623,8.8753 1.38528,2.087024 2.69814,5.415456 2.69814,6.840512 v 0.945443 h -5.88531 -5.88531 l -0.2073,-0.825895 c -0.54618,-2.17624 -3.22346,-4.774918 -5.88774,-5.714937 -4.80666,-1.695885 -10.66615,-0.260295 -14.00231,3.430614 -5.9663,6.600685 -5.53379,18.799371 0.86394,24.366771 5.12099,4.45637 13.95155,4.47765 18.38489,0.0443 1.6033,-1.60329 3.28266,-4.93562 2.84458,-5.64443 -0.10077,-0.16304 -2.04672,-0.29644 -4.32432,-0.29644 h -4.14112 v -4 -4 h 12.48 12.48 v 4 4 h -2.39389 c -2.35315,0 -2.39709,0.015 -2.57984,0.88 -0.5112,2.41955 -2.17024,6.39032 -3.51533,8.41361 -2.57939,3.87998 -6.83264,6.82038 -12.04822,8.32934 -3.17427,0.91837 -11.22077,1.15852 -14.4704,0.43186 z M 0.1896014,97.92068 v -24.16 h 5.44 5.4399996 v 9.76 9.76 h 8.48 8.48 v -9.76 -9.76 h 5.44 5.44 v 24.16 24.16 h -5.44 -5.44 v -9.6 -9.6 h -8.48 -8.48 v 9.6 9.6 h -5.4399996 -5.44 z m 63.0399996,18.56 v -5.6 h 22.88 22.879999 v -18.56 -18.56 h 5.6 5.6 v 24.16 24.16 h -28.479999 -28.48 z m 117.759999,-18.88 v -24.16 h 5.6 5.6 v 24.16 24.16 h -5.6 -5.6 z m 26.88,0 v -24.16 h 6.37701 6.37701 l 0.63349,1.68 c 2.75106,7.295651 11.94365,31.10826 12.15433,31.48471 0.17931,0.32041 2.32423,-4.95813 6.6415,-16.344416 l 6.37666,-16.817664 6.32,-0.0013 6.32,-0.0013 v 24.16 24.16 h -5.4368 -5.43681 l -0.0832,-14.70617 -0.0832,-14.706169 -5.12,14.705749 -5.12,14.70575 -4.19423,3.2e-4 -4.19424,5.2e-4 -5.19656,-14.48 c -2.85811,-7.964 -5.32671,-14.6168 -5.48577,-14.784 -0.17248,-0.181309 -0.2892,5.66272 -0.2892,14.48 v 14.78397 h -5.27999 -5.28 z m 62.08097,21.52705 c 0.52468,-1.45588 4.39787,-12.29505 8.60707,-24.08705 l 7.6531,-21.44 h 5.18514 5.18515 l 8.45169,23.36 c 4.64843,12.848 8.53678,23.68724 8.64078,24.08719 l 0.18909,0.7272 -6.01009,-0.0872 -6.0101,-0.0872 -0.93307,-2.8 -0.93306,-2.8 h -8.58667 -8.58667 l -0.93306,2.8 -0.93307,2.8 -5.9701,0.0871 -5.9701,0.087 z m 27.05357,-12.64705 c -0.7107,-3.18594 -5.58625,-19.029331 -5.73616,-18.64 -0.41573,1.079722 -5.63838,18.82663 -5.63838,19.1596 0,0.25391 1.70944,0.3604 5.78543,0.3604 h 5.78542 z m 87.82546,-8.88 v -24.16 h 5.6 5.6 v 24.16 24.16 h -5.6 -5.6 z m 26.88,0 v -24.16 l 5.84,0.0068 5.84,0.0068 8.64,15.664051 c 4.752,8.615229 8.748,15.668139 8.88,15.673149 0.132,0.005 0.24,-7.046896 0.24,-15.670896 V 73.44068 h 5.44 5.44 v 24.16 24.16 h -5.8737 -5.87369 l -8.60631,-15.38475 -8.6063,-15.384754 -0.0831,15.384754 -0.0831,15.38475 h -5.59693 -5.59693 z m 45.92,-47.721847 c -1.232,-0.25832 -3.752,-1.19958 -5.6,-2.09169 -2.96851,-1.43303 -3.69933,-1.96392 -6.27235,-4.55629 -2.43395,-2.45228 -3.15722,-3.43165 -4.40317,-5.96222 -2.11683,-4.29941 -2.7887,-7.22616 -2.7887,-12.14795 0,-4.92179 0.67187,-7.84855 2.7887,-12.14795 1.99859,-4.05921 6.01331,-8.1914702 9.87552,-10.1646302 4.67286,-2.38733 6.58822,-2.80742 12.8,-2.80742 6.22147,0 8.15142,0.42473 12.8,2.81695 3.85744,1.98508 7.83757,6.0816102 9.85491,10.1430502 2.27991,4.59016 2.62835,6.2584 2.60672,12.48 -0.017,4.85448 -0.0877,5.48631 -0.8783,7.84 -1.38291,4.11691 -3.18624,7.02653 -6.27114,10.1183 -2.38544,2.39074 -3.19993,2.97472 -6.11219,4.38234 -2.03856,0.98533 -4.33005,1.81976 -5.8265,2.1217 -3.09555,0.624575 -9.53846,0.612182 -12.5735,-0.0242 z m 12.40646,-10.77063 c 10.97028,-5.4218 10.95847,-22.55909 -0.0192,-27.98458 -2.36976,-1.1712 -2.52729,-1.20294 -5.97056,-1.20294 -3.30678,0 -3.67552,0.0658 -5.67408,1.01264 -3.63939,1.72419 -6.20633,4.60573 -7.67289,8.61319 -0.56093,1.53275 -0.69322,2.59633 -0.69322,5.57417 0,2.97784 0.13229,4.04141 0.69322,5.57417 1.71081,4.67496 4.92637,7.84459 9.49037,9.35482 0.79939,0.26452 2.43494,0.39133 4.3559,0.33774 2.81862,-0.0786 3.27786,-0.18563 5.49056,-1.27921 z M 180.9896,25.120683 V 0.8006828 h 5.43538 5.43537 l 0.0846,9.8400002 0.0846,9.84 h 8.32 8.32 l 0.0846,-9.84 0.0846,-9.8400002 h 5.59537 5.59538 v 24.3200002 24.32 h -5.59531 -5.5953 l -0.0847,-9.68 -0.0847,-9.68 h -8.32 -8.32 l -0.0847,9.68 -0.0847,9.68 h -5.4353 -5.43531 z m 54.4,0 V 0.8006828 h 14.72 14.72 v 4.48 4.4800002 h -9.12 -9.12 v 5.6 5.6 h 9.12 9.12 v 4.32 4.32 h -9.12 -9.12 v 5.44 5.44 h 9.12 9.12 v 4.48 4.48 h -14.72 -14.72 z m 46.08,0 V 0.8006828 h 5.59752 5.59752 l 0.0825,19.4400002 0.0825,19.44 6.8,0.0864 6.8,0.0864 v 4.79362 4.79364 h -12.48004 -12.48 z m 38.08,-0.007 V 0.7870228 l 6.44854,0.0866 6.44855,0.0866 6.41065,16.7141302 c 3.52589,9.19276 6.49204,16.63441 6.59146,16.537 0.0995,-0.0974 3.01072,-7.61877 6.46947,-16.71412 l 6.28871,-16.5370002 6.27129,-0.0868 6.27133,-0.0868 v 24.3267602 24.32677 h -5.28 -5.28 v -14.72 c 0,-8.096 -0.108,-14.71802 -0.24,-14.71559 -0.132,0.002 -2.53994,6.63039 -5.35098,14.7288 l -5.111,14.72437 -4.12647,-0.0888 -4.12649,-0.0888 -5.21908,-14.50989 c -2.87052,-7.98044 -5.30166,-14.59244 -5.40256,-14.69333 -0.10086,-0.10089 -0.18342,6.46456 -0.18342,14.58989 v 14.77334 h -5.44 -5.44 v -24.32663 z m 66.88,0.007 V 0.8006828 h 5.59536 5.59539 l 0.0846,9.8400002 0.0846,9.84 h 8.32 8.32 l 0.0846,-9.84 0.0846,-9.8400002 h 5.43549 5.43536 v 24.3200002 24.32 h -5.4353 -5.43532 l -0.0847,-9.68 -0.0847,-9.68 h -8.32 -8.32 l -0.0847,9.68 -0.0847,9.68 h -5.59528 -5.5953 z m 114.88,0 V 0.8006828 h 5.59754 5.5975 l 0.0825,19.4400002 0.0825,19.44 6.8,0.0864 6.8,0.0864 v 4.79362 4.79364 h -12.48 -12.48 z m 40.88246,4.88 -0.0825,-19.44 -5.36,-0.0877 -5.36,-0.0877 v -4.7922602 -4.79226 h 16.48004 16.48 v 4.8 4.8000002 h -5.44 -5.44 v 19.52 19.52 h -5.59754 -5.5975 z m 29.60301,19.03884 c 0.0847,-0.22064 5.29693,-8.88238 11.58282,-19.2483 6.28589,-10.36593 11.50342,-19.04141 11.59453,-19.27884 0.13699,-0.35699 -1.69552,-0.4317 -10.58858,-0.4317 H 573.6296 v -4.6400002 -4.64 h 19.69126 c 18.6585,0 19.67498,0.0294 19.38087,0.56 -0.17069,0.308 -5.48499,9.0560002 -11.80954,19.4400002 -6.32454,10.384 -11.43744,18.988 -11.36198,19.12 0.0754,0.132 5.24067,0.24 11.47827,0.24 h 11.34112 v 4.64 4.64 h -20.35424 c -16.18333,0 -20.32269,-0.0822 -20.20029,-0.40116 z M -0.1303986,24.960683 V 0.8006828 h 42.3999996 42.4 v 5.59865 5.5986502 l -36.72,0.0814 -36.72,0.0813 -0.0826,18.48 -0.0826,18.48 H 5.467002 -0.1303986 Z m 109.1199986,0 V 0.8006828 h 5.6 5.6 v 24.1600002 24.16 h -5.6 -5.6 z"
       id="path950" />
  </g>
</svg>
